HIERARCHY
ROOT Hips
{
 OFFSET 0.000000 0.000000 0.000000
 CHANNELS 6 Xposition Yposition Zposition Yrotation Xrotation Zrotation
 JOINT Chest
 {
  OFFSET 0.000000 9.585900 0.002600
  CHANNELS 3 Yrotation Xrotation Zrotation
  JOINT Chest2
  {
   OFFSET 0.000000 9.601200 -0.005300
   CHANNELS 3 Yrotation Xrotation Zrotation
   JOINT Chest3
   {
    OFFSET 0.000000 9.561800 0.000000
    CHANNELS 3 Yrotation Xrotation Zrotation
    JOINT Chest4
    {
     OFFSET 0.000000 9.552100 0.000000
     CHANNELS 3 Yrotation Xrotation Zrotation
     JOINT Neck
     {
      OFFSET 0.000000 14.453000 0.000000
      CHANNELS 3 Yrotation Xrotation Zrotation
      JOINT Head
      {
       OFFSET 0.000000 8.936500 -0.011300
       CHANNELS 3 Yrotation Xrotation Zrotation
       End Site
       {
        OFFSET 0.000000 17.073600 -0.006000
       }
      }
     }
     JOINT RightCollar
     {
      OFFSET -2.921100 9.558500 0.000000
      CHANNELS 3 Yrotation Xrotation Zrotation
      JOINT RightShoulder
      {
       OFFSET -13.519700 0.000000 0.000000
       CHANNELS 3 Yrotation Xrotation Zrotation
       JOINT RightElbow
       {
        OFFSET 0.000000 -29.696600 0.000000
        CHANNELS 3 Yrotation Xrotation Zrotation
        JOINT RightWrist
        {
         OFFSET 0.000000 -24.004700 0.000000
         CHANNELS 3 Yrotation Xrotation Zrotation
         End Site
         {
          OFFSET 0.000000 -17.728500 0.000000
         }
        }
       }
      }
     }
     JOINT LeftCollar
     {
      OFFSET 2.921100 9.558500 0.000000
      CHANNELS 3 Yrotation Xrotation Zrotation
      JOINT LeftShoulder
      {
       OFFSET 13.519700 0.000000 0.000000
       CHANNELS 3 Yrotation Xrotation Zrotation
       JOINT LeftElbow
       {
        OFFSET 0.000000 -29.696600 0.000000
        CHANNELS 3 Yrotation Xrotation Zrotation
        JOINT LeftWrist
        {
         OFFSET 0.000000 -24.004700 0.000000
         CHANNELS 3 Yrotation Xrotation Zrotation
         End Site
         {
          OFFSET 0.000000 -17.728500 0.000000
         }
        }
       }
      }
     }
    }
   }
  }
 }
 JOINT RightHip
 {
  OFFSET -7.771700 -0.012900 -0.001300
  CHANNELS 3 Yrotation Xrotation Zrotation
  JOINT RightKnee
  {
   OFFSET 0.000000 -40.869800 0.001200
   CHANNELS 3 Yrotation Xrotation Zrotation
   JOINT RightAnkle
   {
    OFFSET 0.000000 -39.717900 0.002100
    CHANNELS 3 Yrotation Xrotation Zrotation
    JOINT RightToe
    {
     OFFSET 0.000000 -4.965400 11.033500
     CHANNELS 3 Yrotation Xrotation Zrotation
     End Site
     {
      OFFSET 0.000000 -1.423100 5.872300
     }
    }
   }
  }
 }
 JOINT LeftHip
 {
  OFFSET 7.771700 -0.012900 -0.001300
  CHANNELS 3 Yrotation Xrotation Zrotation
  JOINT LeftKnee
  {
   OFFSET 0.000000 -40.869800 0.001200
   CHANNELS 3 Yrotation Xrotation Zrotation
   JOINT LeftAnkle
   {
    OFFSET 0.000000 -39.717900 0.002100
    CHANNELS 3 Yrotation Xrotation Zrotation
    JOINT LeftToe
    {
     OFFSET 0.000000 -4.965400 11.033500
     CHANNELS 3 Yrotation Xrotation Zrotation
     End Site
     {
      OFFSET 0.000000 -1.423100 5.872300
     }
    }
   }
  }
 }
}
MOTION
Frames: 13
Frame Time: 0.008333
0.000000 85.388000 0.000000 0.000000 -5.767877 0.000000 0.000000 11.653817 0.000000 0.000000 -5.885947 0.000000 0.000000 -0.000000 0.000000 0.000000 -0.000000 0.000000 0.000000 12.528835 0.000000 0.000000 0.711642 0.000000 0.000000 -0.000000 0.000000 0.000000 0.000000 -90.000000 0.000000 -2.309062 0.000000 0.000000 2.309062 0.000000 0.000000 -0.000000 0.000000 0.000000 -0.000000 90.000000 0.000000 -2.309062 0.000000 0.000000 2.309062 0.000000 0.000000 8.520406 0.000000 0.000000 1.905762 0.000000 -0.000000 -4.658285 0.000000 0.000000 -0.000000 0.000000 0.000000 8.520406 0.000000 0.000000 1.905762 0.000000 -0.000000 -4.658285 0.000000 0.000000 -0.000000 0.000000
-132.769020 52.258853 -54.625434 176.477557 -35.719693 0.668501 2.110627 26.078452 -2.741331 0.412171 4.347944 -0.408494 0.651062 6.906596 -0.655225 1.808734 21.414640 -1.806815 5.827465 22.156687 -6.499119 7.970258 -1.414030 -8.560380 13.130521 13.385652 11.229995 71.790712 -7.492541 -62.194824 144.397930 -35.070127 -174.276745 2.815959 -7.804327 -7.169058 -11.556024 20.354015 -18.374517 -31.647365 -15.226834 45.489482 119.486147 -41.449115 -59.438032 24.652934 -18.085492 -1.961544 -8.497066 -46.321119 0.977597 -69.297350 80.797735 -77.444900 -3.606034 -4.800784 5.914626 0.355186 -0.662564 0.151550 3.424477 -44.442925 -3.487858 31.061919 82.919890 35.835542 -2.780691 -11.657514 -1.216659 0.128414 0.497335 0.072745
-132.769300 52.258841 -54.624247 176.491291 -35.733066 0.670001 2.110354 26.079140 -2.762071 0.404625 4.357109 -0.397833 0.659237 6.899313 -0.686680 1.809869 21.420405 -1.797177 5.692582 22.216836 -6.682549 7.875317 -1.339188 -8.699304 13.120058 13.390638 11.190262 71.761621 -7.493891 -62.149382 144.373251 -35.086690 -174.265629 2.830958 -7.731072 -7.248215 -11.563547 20.377008 -18.380374 -31.531350 -15.299931 45.471515 119.319309 -41.396588 -59.287334 24.660384 -18.114936 -1.953160 -8.541774 -46.318760 0.985383 -69.340837 80.799100 -77.502555 -3.617614 -4.783708 5.902129 0.377491 -0.676389 0.155322 3.435994 -44.425838 -3.505878 31.078074 82.906348 35.857114 -2.798785 -11.656496 -1.216131 0.133007 0.502615 0.073516
-132.771488 52.260252 -54.625422 176.504471 -35.763647 0.686780 2.103396 26.094402 -2.807282 0.408940 4.358548 -0.400527 0.656244 6.905064 -0.696190 1.814299 21.424919 -1.787085 5.561334 22.279321 -6.869003 7.787103 -1.262634 -8.845271 13.105165 13.396943 11.159137 71.738748 -7.479422 -62.114662 144.308885 -35.101403 -174.227186 2.839961 -7.672114 -7.313786 -11.556528 20.392116 -18.359688 -31.457507 -15.339747 45.446424 119.183847 -41.352002 -59.121970 24.670985 -18.134022 -1.966915 -8.579600 -46.304185 0.956371 -69.375091 80.818855 -77.556363 -3.589871 -4.764213 5.897765 0.362418 -0.699875 0.146637 3.458493 -44.391646 -3.541595 31.072721 82.899174 35.855982 -2.821673 -11.644078 -1.217670 0.138336 0.494512 0.076962
-132.769924 52.260847 -54.625855 176.516558 -35.789070 0.684589 2.108905 26.101073 -2.836179 0.414545 4.355051 -0.423541 0.650033 6.921445 -0.668796 1.814032 21.426579 -1.821867 5.451750 22.340639 -7.021219 7.705485 -1.183937 -8.996190 13.097595 13.399413 11.171097 71.717961 -7.457866 -62.092979 144.275231 -35.066361 -174.237480 2.867248 -7.580849 -7.319562 -11.567642 20.434329 -18.351921 -31.394566 -15.364875 45.480242 119.065759 -41.313100 -58.950211 24.685054 -18.139306 -1.979625 -8.599112 -46.284892 0.943535 -69.410301 80.825636 -77.590207 -3.580787 -4.756806 5.904320 0.362276 -0.710657 0.130479 3.461053 -44.367386 -3.550190 31.060271 82.899209 35.847458 -2.819707 -11.633352 -1.219330 0.151645 0.490455 0.075850
-132.768331 52.260311 -54.625395 176.529734 -35.805415 0.684553 2.105540 26.107378 -2.856784 0.408585 4.362537 -0.413661 0.650178 6.922575 -0.670692 1.803596 21.426550 -1.877595 5.353733 22.402502 -7.174096 7.632307 -1.102270 -9.149481 13.107794 13.394535 11.208795 71.677220 -7.420191 -62.077080 144.251082 -35.030425 -174.247588 2.896201 -7.504632 -7.305370 -11.635513 20.511143 -18.417265 -31.318016 -15.398437 45.589477 118.957920 -41.281640 -58.784494 24.697214 -18.127240 -1.966321 -8.607621 -46.272420 0.928759 -69.429113 80.829852 -77.609409 -3.571482 -4.755264 5.909648 0.353942 -0.713234 0.123395 3.463363 -44.353760 -3.562687 31.045022 82.899636 35.834229 -2.814935 -11.619144 -1.218799 0.153190 0.482919 0.075805
-132.765594 52.260166 -54.626158 176.550766 -35.828049 0.676802 2.090429 26.126730 -2.864663 0.417918 4.355041 -0.434955 0.650271 6.926505 -0.678169 1.784040 21.430137 -1.961878 5.301275 22.461784 -7.264563 7.574991 -1.017223 -9.304534 13.138852 13.378761 11.302313 71.649120 -7.399086 -62.064780 144.199956 -35.037211 -174.204894 2.904837 -7.464215 -7.305012 -11.626225 20.567896 -18.368880 -31.267146 -15.406727 45.640502 118.860613 -41.257829 -58.626016 24.697728 -18.101813 -1.912537 -8.623861 -46.252609 0.915044 -69.493964 80.827758 -77.665424 -3.562233 -4.763701 5.899555 0.353330 -0.702454 0.135116 3.451730 -44.333787 -3.570185 30.850457 82.916267 35.642350 -2.771456 -11.608891 -1.215345 0.142001 0.477291 0.070113
-132.762391 52.261291 -54.629329 176.568530 -35.865216 0.671949 2.083996 26.149744 -2.888421 0.418408 4.345928 -0.467793 0.651500 6.938402 -0.683191 1.787372 21.437697 -1.955145 5.235407 22.527924 -7.414028 7.539763 -0.927321 -9.460588 13.138988 13.387743 11.314160 71.666201 -7.424509 -62.062890 144.091422 -35.130813 -174.080863 2.869966 -7.476452 -7.335983 -11.644061 20.611204 -18.383548 -31.226374 -15.405769 45.693970 118.767422 -41.237664 -58.467098 24.685126 -18.073484 -1.823305 -8.648740 -46.217770 0.893722 -69.554057 80.841202 -77.713298 -3.551921 -4.783260 5.878100 0.351137 -0.694187 0.138513 3.441138 -44.299784 -3.574872 30.745437 82.932185 35.542072 -2.763637 -11.598932 -1.204738 0.148945 0.466254 0.058087
-132.756319 52.261438 -54.631560 176.585908 -35.893484 0.651965 2.078389 26.162844 -2.897795 0.417738 4.353884 -0.459058 0.652623 6.943230 -0.677512 1.767277 21.434397 -2.007016 5.191874 22.598637 -7.557755 7.528402 -0.830108 -9.616233 13.105414 13.418069 11.285088 71.599681 -7.425290 -62.027247 144.090139 -35.076529 -174.094367 2.847514 -7.451383 -7.345768 -11.658320 20.657122 -18.397301 -31.190872 -15.400467 45.748414 118.667948 -41.214098 -58.299851 24.667780 -18.049297 -1.720084 -8.672135 -46.189779 0.899005 -69.618744 80.849467 -77.758036 -3.573069 -4.787971 5.858699 0.371986 -0.693511 0.144532 3.406538 -44.280232 -3.552585 30.717509 82.947759 35.511651 -2.747154 -11.588547 -1.198505 0.134870 0.457244 0.049806
-132.750825 52.260199 -54.632231 176.600113 -35.907392 0.637666 2.072484 26.143745 -2.937095 0.420300 4.378693 -0.425938 0.649936 6.940171 -0.699841 1.758056 21.436728 -2.028115 5.171407 22.674333 -7.696489 7.542086 -0.724905 -9.772588 13.106311 13.432245 11.292554 71.538844 -7.416562 -61.993527 144.115557 -35.046570 -174.115729 2.817161 -7.408565 -7.341568 -11.667866 20.703133 -18.408309 -31.147361 -15.397494 45.797711 118.553028 -41.182024 -58.124232 24.650882 -18.033853 -1.625049 -8.700210 -46.175591 0.902948 -69.640264 80.867310 -77.766256 -3.582250 -4.802073 5.839101 0.376204 -0.683113 0.148917 3.370354 -44.275579 -3.529369 30.732778 82.958213 35.516157 -2.739383 -11.579571 -1.192139 0.130514 0.447964 0.041090
-132.745632 52.259063 -54.633202 176.608798 -35.921317 0.627982 2.063050 26.142197 -2.956963 0.426401 4.380810 -0.429132 0.633670 6.932005 -0.743039 1.789375 21.451214 -1.985009 5.147613 22.753461 -7.857490 7.581781 -0.613233 -9.931685 13.107212 13.439168 11.294707 71.484312 -7.399100 -61.957161 144.153357 -35.042553 -174.138397 2.770018 -7.363709 -7.330364 -11.697648 20.739905 -18.435848 -31.086441 -15.409022 45.833692 118.416796 -41.138180 -57.941235 24.636076 -18.030808 -1.554760 -8.725534 -46.161042 0.913176 -69.642086 80.877845 -77.764864 -3.589823 -4.806964 5.824867 0.380741 -0.677345 0.154068 3.336040 -44.267979 -3.506672 30.755078 82.966707 35.526221 -2.730952 -11.578740 -1.189728 0.124798 0.447266 0.037683
-132.740519 52.258313 -54.634607 176.602797 -35.936825 0.625591 2.063512 26.142352 -2.976266 0.425612 4.381901 -0.434799 0.632480 6.934821 -0.749195 1.798604 21.457220 -1.980003 5.148230 22.835131 -8.013153 7.646809 -0.494632 -10.092898 13.109198 13.444960 11.295137 71.437649 -7.385280 -61.913565 144.218258 -35.045537 -174.174110 2.715358 -7.306058 -7.320823 -11.724368 20.775721 -18.451234 -31.024464 -15.435222 45.860111 118.269365 -41.079779 -57.742100 24.623525 -18.040911 -1.514103 -8.745578 -46.143324 0.928237 -69.617987 80.885267 -77.742609 -3.590033 -4.811684 5.812538 0.381932 -0.670888 0.156549 3.304973 -44.254203 -3.475733 30.825803 82.966671 35.578002 -2.729033 -11.587985 -1.188299 0.113500 0.453782 0.035905
-132.735487 52.258409 -54.636992 176.585517 -35.958514 0.627524 2.077912 26.156349 -2.979260 0.420586 4.377068 -0.451394 0.638188 6.940907 -0.738593 1.777550 21.457285 -2.021533 5.197269 22.919734 -8.136440 7.735227 -0.365073 -10.254005 13.063684 13.469356 11.251886 71.466095 -7.429700 -61.859426 144.305978 -35.059612 -174.216516 2.658464 -7.231335 -7.315745 -11.725092 20.815893 -18.433931 -30.945156 -15.468808 45.862899 118.120346 -41.004737 -57.554493 24.614295 -18.060878 -1.501401 -8.762009 -46.118515 0.946810 -69.587388 80.887526 -77.717640 -3.579688 -4.815785 5.802638 0.376709 -0.667673 0.155371 3.304877 -44.230308 -3.463051 30.997965 82.958022 35.753775 -2.738842 -11.605363 -1.192725 0.119285 0.462972 0.038497
